<mxfile host="drawio-plugin" modified="2022-11-05T10:18:21.069Z" agent="5.0 (Windows NT 6.2; Win64; x64) AppleWebKit/537.36 (KHTML, like Gecko) Chrome/98.0.4758.102 Safari/537.36" etag="5j5r1rtztkqGytLApAWl" version="15.5.4" type="embed"><diagram id="LAWP7Q3Ea5RS2r_GDeiX" name="Page-1"><mxGraphModel dx="2648" dy="1900" grid="1" gridSize="10" guides="1" tooltips="1" connect="1" arrows="1" fold="1" page="1" pageScale="1" pageWidth="850" pageHeight="1100" math="0" shadow="0"><root><mxCell id="0"/><mxCell id="1" parent="0"/><mxCell id="16" style="edgeStyle=none;rounded=0;orthogonalLoop=1;jettySize=auto;html=1;entryX=0.5;entryY=0.5;entryDx=0;entryDy=0;entryPerimeter=0;endArrow=block;endFill=0;" edge="1" parent="1" source="2" target="4"><mxGeometry relative="1" as="geometry"/></mxCell><mxCell id="2" value="user" style="shape=umlActor;verticalLabelPosition=bottom;verticalAlign=top;html=1;outlineConnect=0;" parent="1" vertex="1"><mxGeometry x="-100" y="-150" width="30" height="60" as="geometry"/></mxCell><mxCell id="8" style="edgeStyle=none;rounded=0;orthogonalLoop=1;jettySize=auto;html=1;entryX=0;entryY=0.5;entryDx=0;entryDy=0;endArrow=open;endFill=0;" edge="1" parent="1" source="4" target="7"><mxGeometry relative="1" as="geometry"/></mxCell><mxCell id="11" style="edgeStyle=none;rounded=0;orthogonalLoop=1;jettySize=auto;html=1;entryX=-0.008;entryY=0.6;entryDx=0;entryDy=0;entryPerimeter=0;endArrow=open;endFill=0;" edge="1" parent="1" source="4" target="10"><mxGeometry relative="1" as="geometry"/></mxCell><mxCell id="14" style="edgeStyle=none;rounded=0;orthogonalLoop=1;jettySize=auto;html=1;entryX=0;entryY=0.5;entryDx=0;entryDy=0;endArrow=open;endFill=0;" edge="1" parent="1" source="4" target="13"><mxGeometry relative="1" as="geometry"/></mxCell><mxCell id="4" value="anonymus" style="shape=umlActor;verticalLabelPosition=bottom;verticalAlign=top;html=1;outlineConnect=0;" vertex="1" parent="1"><mxGeometry x="90" y="-150" width="30" height="60" as="geometry"/></mxCell><mxCell id="17" value="&amp;lt;&amp;lt;extend&amp;gt;&amp;gt;" style="edgeStyle=none;rounded=0;orthogonalLoop=1;jettySize=auto;html=1;entryX=0.5;entryY=1;entryDx=0;entryDy=0;endArrow=open;endFill=0;" edge="1" parent="1" source="7" target="10"><mxGeometry relative="1" as="geometry"/></mxCell><mxCell id="7" value="create account" style="ellipse;whiteSpace=wrap;html=1;" vertex="1" parent="1"><mxGeometry x="260" y="140" width="120" height="80" as="geometry"/></mxCell><mxCell id="10" value="login" style="ellipse;whiteSpace=wrap;html=1;" vertex="1" parent="1"><mxGeometry x="280" y="-20" width="120" height="80" as="geometry"/></mxCell><mxCell id="15" value="&amp;lt;&amp;lt;extend&amp;gt;&amp;gt;" style="edgeStyle=none;rounded=0;orthogonalLoop=1;jettySize=auto;html=1;entryX=0.5;entryY=0;entryDx=0;entryDy=0;endArrow=open;endFill=0;exitX=0.5;exitY=1;exitDx=0;exitDy=0;" edge="1" parent="1" source="13" target="10"><mxGeometry relative="1" as="geometry"><mxPoint x="346.9271148816106" y="-40.002493460938425" as="sourcePoint"/></mxGeometry></mxCell><mxCell id="13" value="resset password" style="ellipse;whiteSpace=wrap;html=1;" vertex="1" parent="1"><mxGeometry x="270" y="-180" width="120" height="80" as="geometry"/></mxCell></root></mxGraphModel></diagram></mxfile>